PathFileType	4	(X/Y/Z)	F:\MotionCapture\20160217\3\Generated_files\EMG_Fprce_test02-Dynamic.trc
DataRate	CameraRate	NumFrames	NumMarkers	Units	OrigDataRate	OrigDataStartFrame	OrigNumFrames
120.00	120.00	       7	39	mm	120.00	88	       703
Frame#	Time	Top.Head			Front.Head			Rear.Head			R.Shoulder			R.Offset			R.Elbow			R.Wrist			L.Shoulder			L.Elbow			L.Wrist			R.ASIS			L.ASIS			V.Sacral			R.Thigh			R.Knee			R.Shank			R.Ankle			R.Heel			R.Toe			L.Thigh			L.Knee			L.Shank			L.Ankle			L.Heel			L.Toe			R1			R2			R3			R4			R5			R6			R7			L1			L2			L3			L4			L5			L6			L7			V_Mid_ASIS			V_Pelvis_Origin			V_R.Hip_JC			V_L.Hip_JC			V_R.Knee_JC			V_L.Knee_JC			V_R.Ankle_JC			V_L.Ankle_JC			V_Mid_Hip			V_Mid_Shoulder			V_R.Hand			V_L.Hand			V_R.Toe_Offset_Static			V_L.Toe_Offset_Static			V_R.Toe_Offset			V_L.Toe_Offset			
		X1	Y1	Z1	X2	Y2	Z2	X3	Y3	Z3	X4	Y4	Z4	X5	Y5	Z5	X6	Y6	Z6	X7	Y7	Z7	X8	Y8	Z8	X9	Y9	Z9	X10	Y10	Z10	X11	Y11	Z11	X12	Y12	Z12	X13	Y13	Z13	X14	Y14	Z14	X15	Y15	Z15	X16	Y16	Z16	X17	Y17	Z17	X18	Y18	Z18	X19	Y19	Z19	X20	Y20	Z20	X21	Y21	Z21	X22	Y22	Z22	X23	Y23	Z23	X24	Y24	Z24	X25	Y25	Z25	X26	Y26	Z26	X27	Y27	Z27	X28	Y28	Z28	X29	Y29	Z29	X30	Y30	Z30	X31	Y31	Z31	X32	Y32	Z32	X33	Y33	Z33	X34	Y34	Z34	X35	Y35	Z35	X36	Y36	Z36	X37	Y37	Z37	X38	Y38	Z38	X39	Y39	Z39	

88	0.725	2376.90259	120.91740	1737.72998	2267.80835	121.96464	1650.11694	2487.83862	111.02699	1673.77661				2568.42432	50.08370	1285.63123	2353.96875	-195.96509	869.74713	2448.24170	-190.23375	1108.50818	2414.51294	-95.12016	1429.77209				2435.43506	315.89890	1435.18213	2376.38965	272.52917	956.48511	2362.10938	-17.69218	953.94073	2593.22119	114.27266	957.36206	2351.33032	238.00951	581.13251	2415.72168	282.97821	476.00848	2438.35815	220.53294	238.46283	2500.02441	298.49869	78.40948	2568.94556	237.64023	47.49422	2358.23389	284.88388	50.23857	2315.34961	18.33119	634.10962	2396.79175	-39.49907	474.14450	2392.65796	31.43213	330.69376	2475.52344	-39.93590	67.68387	2541.54712	14.26650	48.97236	2337.04980	-38.87409	53.11100	2311.89990	266.75241	46.54339	2351.79565	248.00804	54.14563	2448.65308	210.19937	61.46737	2522.86694	209.19600	45.73177	2540.35815	281.98962	50.22588	2463.58130	311.07440	43.09189	2396.90869	324.93433	43.62674				2327.10669	-0.86496	55.02795	2418.50244	44.22396	58.51593	2502.05200	45.72705	49.53664	2516.32104	-25.86919	50.18492	2440.39697	-55.01546	40.79781	2376.53076	-67.38152	46.45936																																																	2285.47437	-17.95489	40.07483	3119.09009	230.95726	-143.60986	2468.33960	420.51740	1109.82446	2343.81104	398.75220	879.99304	2868.79199	143.02382	-102.36022	
89	0.733	2375.60132	120.16703	1737.47327	2267.39551	121.25286	1650.04065	2486.64673	110.74739	1673.53101				2567.75806	49.92989	1285.83691	2355.18213	-197.28712	869.66333	2448.63940	-191.09790	1108.68262	2413.50659	-95.78706	1429.59546				2433.19141	315.10846	1434.70251	2375.66870	271.88528	956.20270	2362.77979	-18.10135	952.75104	2593.20581	113.94238	957.61646	2351.78174	237.55772	581.13165	2416.17139	282.73846	475.90448	2438.91113	220.20819	238.55754	2500.04395	297.06784	77.96078	2568.96582	237.61443	47.46284	2358.25464	284.81824	50.23499	2315.54883	18.13513	634.16968	2397.66626	-39.59986	474.03052	2393.18018	31.55867	330.53259	2476.07520	-40.04531	67.35344	2541.91577	14.53640	48.83857	2337.53027	-39.07377	52.71854	2311.97363	266.68805	46.60035	2351.86963	247.95592	54.12328	2448.69141	210.12141	61.45147	2522.82715	209.14621	45.70968	2540.34424	281.97614	50.22871	2463.52637	311.00363	43.08456	2396.87061	324.87732	43.67461				2327.63013	-1.32818	54.40888	2419.06567	44.62230	57.76237	2502.70386	45.80621	49.30364	2516.59033	-25.73592	50.16162	2440.79443	-54.84815	40.68799	2376.99731	-67.67645	46.41911																																																	2286.58765	-18.51988	40.73963	2467.58521	420.41183	1109.76477	2343.61938	398.74448	879.58881	3118.51636	231.02765	-143.51176	2868.14380	142.65198	-102.51452	
90	0.742	2374.54736	119.53320	1737.64880	2265.09326	119.84350	1650.53369	2485.63062	109.98972	1673.56604				2566.86719	49.26638	1285.97632	2357.27319	-199.37938	869.24463	2448.98242	-192.90520	1108.95898	2412.72510	-96.58115	1429.63147				2431.46753	314.64737	1434.39697	2375.69043	271.15308	956.16876	2361.35327	-18.86091	952.56787	2593.04028	113.28209	957.82501	2352.70264	237.12183	581.02051	2416.43823	282.36890	476.07532	2439.29663	220.01505	238.74762	2500.06348	297.02148	78.01055	2568.96216	237.60222	47.46938	2358.18579	284.74371	50.31683	2316.70508	17.35203	633.50604	2399.10596	-39.90405	473.90744	2393.20410	31.55754	330.64383	2476.19312	-39.88815	67.35335	2541.94360	14.69696	48.80333	2337.75415	-39.50997	52.75902	2311.99194	266.62122	46.65071	2351.87158	247.96283	54.22474	2448.63721	209.95903	61.54936	2522.85815	209.13770	45.74802	2540.35425	281.89471	50.23670	2463.53345	310.97552	43.19725	2396.87646	324.76382	43.78401	2287.88354	-19.55257	41.49609	2327.61230	-1.87301	53.98212	2418.86035	44.88752	57.21786	2502.58911	45.88799	49.13997	2516.17554	-25.87010	49.17832	2440.96997	-54.76488	40.62610	2376.97876	-68.39897	46.42127																																																	3117.90723	231.02640	-143.36577	2466.24438	419.55789	1109.69275	2343.14624	398.54703	879.16376	2872.38208	141.93449	-104.00909	
91	0.750	2373.40015	118.75927	1737.67615	2263.89087	119.21124	1650.76733	2484.16968	109.35327	1673.34595				2565.89868	48.78159	1286.22803	2359.49316	-200.52945	868.93445	2449.22217	-194.04503	1109.09387	2412.22144	-97.21191	1429.55554				2430.03662	314.28934	1434.16309	2376.10547	270.08698	956.37628	2361.16797	-19.18326	952.19708	2592.74316	112.63561	957.96521	2352.44458	236.31227	581.11255	2416.61035	281.80161	476.26147	2439.43408	219.81645	238.99037	2500.38745	297.11099	78.45596	2568.98071	237.57643	47.44738	2358.28369	284.81458	50.38821	2317.41724	16.95159	633.25214	2399.84570	-40.04076	473.96609	2393.36816	31.38701	330.75543	2476.13354	-39.89185	67.40811	2541.74780	15.01575	48.76182	2338.75269	-38.67389	51.40916	2311.97217	266.58762	46.76554	2351.85327	247.73199	54.37667	2448.70581	209.71356	61.45980	2522.88843	209.15038	45.77564	2540.07788	281.31570	49.84447	2463.45996	310.92685	43.26299	2396.61963	324.64267	43.83274	2289.32397	-20.86608	42.88196	2327.17700	-2.82739	53.64915	2418.39697	45.15714	57.19191	2502.30884	46.03841	48.95370	2516.04248	-25.59311	49.18433	2441.04028	-54.76704	40.67418	2377.52222	-68.66840	45.79964																																																	2465.24536	418.90411	1109.96753	2342.44507	398.40298	878.60913	
92	0.758	2372.37134	118.18118	1737.64478	2262.84448	118.24937	1650.53491	2483.40039	108.87036	1673.30872				2565.05078	48.26448	1286.31372	2361.07764	-201.76721	868.50867	2449.31860	-194.93532	1109.09229	2411.15308	-97.91161	1429.25330				2428.09253	313.15372	1433.63965	2375.69800	269.47705	956.04761	2360.50220	-19.82178	951.41107	2592.47852	112.05673	958.06036	2352.78711	235.43610	581.19830	2416.85742	281.18604	476.30423	2439.70703	219.66023	239.27426	2500.15308	296.93948	78.04705	2569.03662	237.51357	47.44085	2358.46777	284.67575	50.51759	2318.15430	16.60679	633.13574	2400.44702	-40.18727	474.03854	2393.61157	31.31196	331.07462	2476.07349	-39.89086	67.37400	2541.57886	15.10797	48.80778	2338.94580	-40.01411	51.17632	2311.92578	266.51382	46.88446	2351.89722	247.74525	54.57958	2448.73315	209.70628	61.49833	2522.90186	209.15366	45.76402	2540.36279	281.85025	50.28597	2463.41699	310.89767	43.30385	2396.80444	324.46707	43.96335	2290.35352	-21.08625	43.61614	2326.95728	-3.39081	53.64256	2417.96606	44.89203	55.95797	2502.06494	46.21741	48.87350	2515.98779	-25.52022	49.22201	2441.28955	-54.69734	40.30173	2378.35547	-69.82366	47.65812																																																	3115.46069	231.06058	-143.20671	2464.31445	418.96127	1110.04248	2342.10840	398.10187	877.81848	2875.72852	141.02440	-105.05187	
93	0.767	2371.20386	117.27634	1737.66577	2261.70508	117.44526	1650.81482	2482.07910	108.12141	1673.22058				2564.08374	47.56803	1286.66504	2363.27344	-203.64873	868.09399	2449.49243	-195.78311	1109.64856	2410.13672	-98.67357	1429.39282				2426.67480	312.60223	1433.55786	2376.05493	268.88718	955.65381	2360.32153	-20.76781	951.13062	2592.17920	111.49529	958.23541	2352.94141	234.79477	581.15314	2417.35425	280.41095	476.43826	2439.81201	219.52461	239.38969	2500.53491	297.05136	78.45529	2569.12988	237.43587	47.37362	2358.63452	284.58121	50.67855	2318.57690	16.56438	633.14740	2400.73901	-40.34764	474.16583	2393.80615	30.89861	331.07056	2476.10938	-39.96819	67.28894	2541.63599	15.06905	48.77206	2338.96631	-39.78781	51.16584	2312.02563	266.46313	47.32577	2351.94189	247.75029	54.79660	2448.81177	209.60115	61.75432	2522.94531	209.16014	45.74049	2540.13013	281.31583	49.86040	2463.49341	310.99573	43.49883	2396.78638	324.52817	43.94074	2291.09692	-19.61549	44.93090	2326.91650	-3.16325	53.65326	2417.90015	44.81997	55.74415	2502.11694	46.20564	48.77651	2516.01855	-25.55322	49.16965	2441.35669	-54.70030	40.40861	2378.40015	-69.79552	47.69319																																																	2463.35474	418.90289	1110.14465	2341.71729	397.54282	877.31073	3114.45972	230.86906	-143.43524	2974.56787	166.34685	-135.27147	
94	0.775	2370.56445	116.61151	1737.89465	2261.83081	117.42776	1651.12256	2481.05225	107.62866	1673.06958				2563.16162	47.17057	1286.78162	2364.15015	-204.73251	868.14850	2450.19653	-197.61288	1110.08350	2409.56104	-99.76990	1429.62012				2425.09814	311.87689	1433.45483	2374.85400	268.16745	955.93854	2360.86938	-21.62409	951.03375	2591.78442	111.09763	958.37964	2352.75635	233.75085	581.37122	2417.78052	279.91547	476.65601	2439.99585	219.29808	239.60191	2500.61768	297.03595	78.44841	2569.26611	237.36317	47.32954	2358.84180	284.49951	50.91092	2318.46680	16.48437	633.10687	2400.83008	-40.61729	474.24203	2393.75806	30.77444	331.16196	2476.27881	-39.91898	67.32021	2541.81763	14.97943	48.69098	2338.92603	-38.90413	51.27061	2312.00659	266.51935	47.54214	2351.93286	247.90599	55.21302	2448.98999	209.69756	61.88458	2523.04224	209.12822	45.74108	2540.15063	281.29318	49.86142	2463.52197	310.97235	43.40222	2397.07227	324.39963	44.15820	2292.60254	-17.05512	47.37842	2327.04443	-2.11988	53.98536	2418.21875	44.94614	56.18846	2502.35449	46.01577	48.74164	2516.09521	-25.64164	49.10571	2441.11792	-54.78215	40.61252	2378.51221	-69.60099	47.82759																																																	2461.89697	418.35931	1109.62866	2341.20703	396.82422	877.12494	3115.13818	230.96622	-143.09755	
